<?xml version="1.0" encoding="UTF-8"?>
<!DOCTYPE svg PUBLIC "-//W3C//DTD SVG 1.1//EN" "http://www.w3.org/Graphics/SVG/1.1/DTD/svg11.dtd">
<svg xmlns="http://www.w3.org/2000/svg" version="1.1" width="446px" height="272px" style="shape-rendering:geometricPrecision; text-rendering:geometricPrecision; image-rendering:optimizeQuality; fill-rule:evenodd; clip-rule:evenodd" xmlns:xlink="http://www.w3.org/1999/xlink">
<g><path style="opacity:1" fill="#fefefe" d="M -0.5,-0.5 C 148.167,-0.5 296.833,-0.5 445.5,-0.5C 445.5,85.5 445.5,171.5 445.5,257.5C 443.077,255.02 440.077,253.686 436.5,253.5C 428.922,253.53 421.255,253.697 413.5,254C 410.789,255.805 408.122,255.805 405.5,254C 398,253.833 390.5,253.667 383,253.5C 357.559,253.594 332.059,253.76 306.5,254C 304.005,256.219 303.005,259.052 303.5,262.5C 303.023,266.14 304.023,269.14 306.5,271.5C 204.167,271.5 101.833,271.5 -0.5,271.5C -0.5,180.833 -0.5,90.1667 -0.5,-0.5 Z"/></g>
<g><path style="opacity:1" fill="#0c0a09" d="M 131.5,183.5 C 131.5,166.5 131.5,149.5 131.5,132.5C 131.334,125.492 131.5,118.492 132,111.5C 133.925,110.12 135.759,108.62 137.5,107C 126.226,88.158 130.892,74.8247 151.5,67C 163.431,64.855 172.265,69.0216 178,79.5C 180.784,88.1174 179.617,96.1174 174.5,103.5C 175.991,104.244 177.491,104.91 179,105.5C 179.824,131.876 179.657,158.209 178.5,184.5C 176.043,186.062 173.376,187.062 170.5,187.5C 159.51,188.915 148.51,190.249 137.5,191.5C 135.571,191.46 133.738,191.127 132,190.5C 131.503,188.19 131.337,185.857 131.5,183.5 Z"/></g>
<g><path style="opacity:1" fill="#130d07" d="M 129.5,132.5 C 130.651,149.093 130.818,165.759 130,182.5C 127.032,184.511 123.866,185.844 120.5,186.5C 100.14,186.438 79.8065,187.105 59.5,188.5C 57.9002,188.449 56.4002,188.116 55,187.5C 53.5295,150.836 52.5295,114.17 52,77.5C 53.6095,76.8534 55.1095,76.02 56.5,75C 69.7225,73.6113 82.8892,73.4446 96,74.5C 96.5,94.4972 96.6666,114.497 96.5,134.5C 107.444,133.059 118.444,132.392 129.5,132.5 Z"/></g>
<g><path style="opacity:1" fill="#070402" d="M 309.5,74.5 C 318.682,74.1734 327.682,74.5067 336.5,75.5C 325.654,75.1722 314.987,75.5056 304.5,76.5C 299.167,76.5 293.833,76.5 288.5,76.5C 288.5,80.1667 288.5,83.8333 288.5,87.5C 288.5,93.8333 288.5,100.167 288.5,106.5C 288.5,111.167 288.5,115.833 288.5,120.5C 288.5,124.5 288.5,128.5 288.5,132.5C 288.5,137.167 288.5,141.833 288.5,146.5C 288.5,148.5 288.5,150.5 288.5,152.5C 288.5,157.167 288.5,161.833 288.5,166.5C 288.5,172.5 288.5,178.5 288.5,184.5C 303.871,182.383 319.204,180.049 334.5,177.5C 334.5,174.5 334.5,171.5 334.5,168.5C 334.325,164.459 334.158,160.459 334,156.5C 337.032,160.359 340.198,164.026 343.5,167.5C 351.529,176.526 359.529,185.526 367.5,194.5C 367.167,195.167 366.833,195.833 366.5,196.5C 365.162,198.113 363.495,198.613 361.5,198C 353.704,188.536 345.538,179.369 337,170.5C 336.667,173.167 336.333,175.833 336,178.5C 334.391,179.147 332.891,179.98 331.5,181C 316.568,183.908 301.568,186.408 286.5,188.5C 285.228,188.43 284.062,188.097 283,187.5C 282.333,150.833 282.333,114.167 283,77.5C 284.609,76.8534 286.109,76.02 287.5,75C 294.826,74.5003 302.159,74.3337 309.5,74.5 Z"/></g>
<g><path style="opacity:1" fill="#6d1d02" d="M 304.5,76.5 C 314.987,75.5056 325.654,75.1722 336.5,75.5C 336.737,76.791 336.404,77.791 335.5,78.5C 325.554,76.5247 315.221,75.8581 304.5,76.5 Z"/></g>
<g><path style="opacity:1" fill="#f64900" d="M 94.5,87.5 C 82.5,87.5 70.5,87.5 58.5,87.5C 58.5,91.8333 58.5,96.1667 58.5,100.5C 57.5076,92.6841 57.1743,84.6841 57.5,76.5C 69.8152,75.6846 82.1485,75.3512 94.5,75.5C 94.5,79.5 94.5,83.5 94.5,87.5 Z"/></g>
<g><path style="opacity:1" fill="#fc4c00" d="M 177.5,91.5 C 171.071,92.794 164.405,93.4607 157.5,93.5C 150.595,93.4607 143.929,92.794 137.5,91.5C 137.016,77.8225 143.516,70.1559 157,68.5C 170.732,69.9388 177.565,77.6055 177.5,91.5 Z"/></g>
<g><path style="opacity:1" fill="#fe4c00" d="M 304.5,76.5 C 315.221,75.8581 325.554,76.5247 335.5,78.5C 335.425,81.2062 335.092,83.8728 334.5,86.5C 319.245,87.4834 303.911,87.8168 288.5,87.5C 288.5,83.8333 288.5,80.1667 288.5,76.5C 293.833,76.5 299.167,76.5 304.5,76.5 Z"/></g>
<g><path style="opacity:1" fill="#ff5800" d="M 94.5,87.5 C 94.5,91.8333 94.5,96.1667 94.5,100.5C 82.5,100.5 70.5,100.5 58.5,100.5C 58.5,96.1667 58.5,91.8333 58.5,87.5C 70.5,87.5 82.5,87.5 94.5,87.5 Z"/></g>
<g><path style="opacity:1" fill="#f95a00" d="M 137.5,91.5 C 143.929,92.794 150.595,93.4607 157.5,93.5C 164.405,93.4607 171.071,92.794 177.5,91.5C 176.181,98.1469 172.848,103.48 167.5,107.5C 161.688,106.38 155.688,106.38 149.5,107.5C 142.617,104.427 138.617,99.0939 137.5,91.5 Z"/></g>
<g><path style="opacity:1" fill="#fd5c00" d="M 334.5,86.5 C 333.12,91.452 332.287,96.452 332,101.5C 334.703,98.6286 337.536,95.9619 340.5,93.5C 354.167,93.5 367.833,93.5 381.5,93.5C 383.054,94.9142 384.388,96.5808 385.5,98.5C 382.812,101.854 379.812,104.854 376.5,107.5C 347.338,106.502 318.005,106.169 288.5,106.5C 288.5,100.167 288.5,93.8333 288.5,87.5C 303.911,87.8168 319.245,87.4834 334.5,86.5 Z"/></g>
<g><path style="opacity:1" fill="#fe6500" d="M 58.5,100.5 C 70.5,100.5 82.5,100.5 94.5,100.5C 94.5,104.833 94.5,109.167 94.5,113.5C 82.4197,113.188 70.4197,113.521 58.5,114.5C 58.5,109.833 58.5,105.167 58.5,100.5 Z"/></g>
<g><path style="opacity:1" fill="#fd6a00" d="M 149.5,107.5 C 155.688,106.38 161.688,106.38 167.5,107.5C 170.786,106.793 174.119,106.46 177.5,106.5C 177.5,111.167 177.5,115.833 177.5,120.5C 164.167,120.5 150.833,120.5 137.5,120.5C 137.5,116.833 137.5,113.167 137.5,109.5C 142.179,109.666 146.845,109.499 151.5,109C 150.956,108.283 150.289,107.783 149.5,107.5 Z"/></g>
<g><path style="opacity:1" fill="#fd6a00" d="M 288.5,106.5 C 318.005,106.169 347.338,106.502 376.5,107.5C 372.167,112.5 367.5,117.167 362.5,121.5C 338.006,120.502 313.339,120.169 288.5,120.5C 288.5,115.833 288.5,111.167 288.5,106.5 Z"/></g>
<g><path style="opacity:1" fill="#fe7100" d="M 94.5,113.5 C 94.5,117.833 94.5,122.167 94.5,126.5C 82.8333,126.5 71.1667,126.5 59.5,126.5C 59.8064,123.615 59.4731,120.948 58.5,118.5C 58.5,117.167 58.5,115.833 58.5,114.5C 70.4197,113.521 82.4197,113.188 94.5,113.5 Z"/></g>
<g><path style="opacity:1" fill="#ff7700" d="M 137.5,120.5 C 150.833,120.5 164.167,120.5 177.5,120.5C 177.5,124.5 177.5,128.5 177.5,132.5C 164.167,132.5 150.833,132.5 137.5,132.5C 137.5,128.5 137.5,124.5 137.5,120.5 Z"/></g>
<g><path style="opacity:1" fill="#fd7600" d="M 288.5,120.5 C 313.339,120.169 338.006,120.502 362.5,121.5C 360.523,123.814 358.523,126.147 356.5,128.5C 357.524,129.852 358.524,131.185 359.5,132.5C 335.833,132.5 312.167,132.5 288.5,132.5C 288.5,128.5 288.5,124.5 288.5,120.5 Z"/></g>
<g><path style="opacity:1" fill="#a3a3a3" d="M 129.5,132.5 C 130.167,132.5 130.833,132.5 131.5,132.5C 131.5,149.5 131.5,166.5 131.5,183.5C 128.274,185.877 124.607,186.877 120.5,186.5C 123.866,185.844 127.032,184.511 130,182.5C 130.818,165.759 130.651,149.093 129.5,132.5 Z"/></g>
<g><path style="opacity:1" fill="#fb8100" d="M 58.5,118.5 C 59.4731,120.948 59.8064,123.615 59.5,126.5C 71.1667,126.5 82.8333,126.5 94.5,126.5C 94.5,129.833 94.5,133.167 94.5,136.5C 105.788,135.171 117.122,134.504 128.5,134.5C 128.5,138.5 128.5,142.5 128.5,146.5C 105.5,146.5 82.5,146.5 59.5,146.5C 59.0005,137.174 58.6672,127.841 58.5,118.5 Z"/></g>
<g><path style="opacity:1" fill="#ff8400" d="M 137.5,132.5 C 150.833,132.5 164.167,132.5 177.5,132.5C 177.5,137.167 177.5,141.833 177.5,146.5C 164.167,146.5 150.833,146.5 137.5,146.5C 137.5,141.833 137.5,137.167 137.5,132.5 Z"/></g>
<g><path style="opacity:1" fill="#fe8400" d="M 288.5,132.5 C 312.167,132.5 335.833,132.5 359.5,132.5C 363.805,137.141 368.139,141.807 372.5,146.5C 344.5,146.5 316.5,146.5 288.5,146.5C 288.5,141.833 288.5,137.167 288.5,132.5 Z"/></g>
<g><path style="opacity:1" fill="#0b0705" d="M 188.5,67.5 C 189.873,67.3433 191.207,67.51 192.5,68C 206.333,79.8333 220.167,91.6667 234,103.5C 233.159,93.7829 231.659,84.1162 229.5,74.5C 229.667,73.5 229.833,72.5 230,71.5C 232.568,69.5621 235.402,68.7287 238.5,69C 252.552,74.4461 266.385,80.2794 280,86.5C 280.829,120.738 280.662,154.905 279.5,189C 277.253,190.309 274.92,190.975 272.5,191C 260.333,178.167 248.167,165.333 236,152.5C 236.231,160.64 236.731,168.807 237.5,177C 237.435,179.225 237.102,181.392 236.5,183.5C 220.403,187.462 204.07,190.462 187.5,192.5C 186.228,192.43 185.062,192.097 184,191.5C 183.333,151.167 183.333,110.833 184,70.5C 185.878,69.9473 187.378,68.9473 188.5,67.5 Z"/></g>
<g><path style="opacity:1" fill="#fe7e00" d="M 189.5,126.5 C 219.167,126.5 248.833,126.5 278.5,126.5C 278.5,131.167 278.5,135.833 278.5,140.5C 263.657,140.171 248.99,140.504 234.5,141.5C 233.833,141.167 233.167,140.833 232.5,140.5C 218.167,140.5 203.833,140.5 189.5,140.5C 189.5,135.833 189.5,131.167 189.5,126.5 Z"/></g>
<g><path style="opacity:1" fill="#fe7100" d="M 189.5,113.5 C 219.167,113.5 248.833,113.5 278.5,113.5C 278.5,117.833 278.5,122.167 278.5,126.5C 248.833,126.5 219.167,126.5 189.5,126.5C 189.5,122.167 189.5,117.833 189.5,113.5 Z"/></g>
<g><path style="opacity:1" fill="#fd6300" d="M 278.5,93.5 C 278.5,100.167 278.5,106.833 278.5,113.5C 248.833,113.5 219.167,113.5 189.5,113.5C 189.5,109.167 189.5,104.833 189.5,100.5C 201.833,100.5 214.167,100.5 226.5,100.5C 231.481,104.476 236.481,108.476 241.5,112.5C 241.833,111.667 242.167,110.833 242.5,110C 241.433,104.832 240.433,99.6658 239.5,94.5C 252.421,93.5197 265.421,93.1863 278.5,93.5 Z"/></g>
<g><path style="opacity:1" fill="#fc5400" d="M 226.5,100.5 C 214.167,100.5 201.833,100.5 189.5,100.5C 189.333,89.8281 189.5,79.1615 190,68.5C 202.064,79.4043 214.23,90.071 226.5,100.5 Z"/></g>
<g><path style="opacity:1" fill="#fc5000" d="M 278.5,93.5 C 265.421,93.1863 252.421,93.5197 239.5,94.5C 238.17,87.5144 236.836,80.5144 235.5,73.5C 235.833,72.5 236.167,71.5 236.5,70.5C 250.311,76.4086 264.311,81.7419 278.5,86.5C 278.5,88.8333 278.5,91.1667 278.5,93.5 Z"/></g>
<g><path style="opacity:1" fill="#1f1b17" d="M 366.5,196.5 C 366.833,195.833 367.167,195.167 367.5,194.5C 375.464,186.035 383.631,177.702 392,169.5C 392.74,168.251 392.573,167.251 391.5,166.5C 387.167,161.833 382.833,157.167 378.5,152.5C 376.833,150.167 374.833,148.167 372.5,146.5C 368.139,141.807 363.805,137.141 359.5,132.5C 358.524,131.185 357.524,129.852 356.5,128.5C 358.523,126.147 360.523,123.814 362.5,121.5C 367.5,117.167 372.167,112.5 376.5,107.5C 379.812,104.854 382.812,101.854 385.5,98.5C 384.388,96.5808 383.054,94.9142 381.5,93.5C 375.203,85.2023 368.537,77.2023 361.5,69.5C 354.031,77.1163 347.031,85.1163 340.5,93.5C 337.536,95.9619 334.703,98.6286 332,101.5C 332.287,96.452 333.12,91.452 334.5,86.5C 335.092,83.8728 335.425,81.2062 335.5,78.5C 336.404,77.791 336.737,76.791 336.5,75.5C 327.682,74.5067 318.682,74.1734 309.5,74.5C 318.657,73.3424 327.991,73.1757 337.5,74C 338.081,74.8926 338.415,75.8926 338.5,77C 337.393,81.8588 336.56,86.6921 336,91.5C 342.617,84.4279 349.117,77.2612 355.5,70C 357.923,68.2212 360.59,67.5545 363.5,68C 371.453,77.4079 379.286,86.9079 387,96.5C 387.667,97.8333 387.667,99.1667 387,100.5C 377.652,109.681 368.486,119.014 359.5,128.5C 370.817,140.984 382.317,153.317 394,165.5C 394.667,167.167 394.667,168.833 394,170.5C 385.246,179.758 376.079,188.425 366.5,196.5 Z"/></g>
<g><path style="opacity:1" fill="#fb5000" d="M 381.5,93.5 C 367.833,93.5 354.167,93.5 340.5,93.5C 347.031,85.1163 354.031,77.1163 361.5,69.5C 368.537,77.2023 375.203,85.2023 381.5,93.5 Z"/></g>
<g><path style="opacity:1" fill="#fc8900" d="M 189.5,140.5 C 203.833,140.5 218.167,140.5 232.5,140.5C 233.36,144.434 233.693,148.434 233.5,152.5C 218.833,152.5 204.167,152.5 189.5,152.5C 189.5,148.5 189.5,144.5 189.5,140.5 Z"/></g>
<g><path style="opacity:1" fill="#fd8b00" d="M 278.5,140.5 C 278.5,146.833 278.5,153.167 278.5,159.5C 269.651,159.174 260.984,159.507 252.5,160.5C 246.528,154.193 240.528,147.86 234.5,141.5C 248.99,140.504 263.657,140.171 278.5,140.5 Z"/></g>
<g><path style="opacity:1" fill="#fd8b00" d="M 288.5,146.5 C 316.5,146.5 344.5,146.5 372.5,146.5C 374.833,148.167 376.833,150.167 378.5,152.5C 348.5,152.5 318.5,152.5 288.5,152.5C 288.5,150.5 288.5,148.5 288.5,146.5 Z"/></g>
<g><path style="opacity:1" fill="#fe9000" d="M 59.5,146.5 C 82.5,146.5 105.5,146.5 128.5,146.5C 128.5,150.833 128.5,155.167 128.5,159.5C 105.833,159.5 83.1667,159.5 60.5,159.5C 59.564,155.265 59.2307,150.931 59.5,146.5 Z"/></g>
<g><path style="opacity:1" fill="#ff9000" d="M 137.5,146.5 C 150.833,146.5 164.167,146.5 177.5,146.5C 177.5,150.833 177.5,155.167 177.5,159.5C 164.167,159.5 150.833,159.5 137.5,159.5C 137.5,155.167 137.5,150.833 137.5,146.5 Z"/></g>
<g><path style="opacity:1" fill="#fd9400" d="M 288.5,152.5 C 318.5,152.5 348.5,152.5 378.5,152.5C 382.833,157.167 387.167,161.833 391.5,166.5C 375.325,166.17 359.325,166.504 343.5,167.5C 340.198,164.026 337.032,160.359 334,156.5C 334.158,160.459 334.325,164.459 334.5,168.5C 319.408,166.54 304.075,165.874 288.5,166.5C 288.5,161.833 288.5,157.167 288.5,152.5 Z"/></g>
<g><path style="opacity:1" fill="#fd9500" d="M 189.5,152.5 C 204.167,152.5 218.833,152.5 233.5,152.5C 234.329,157.453 234.663,162.453 234.5,167.5C 219.578,166.517 204.578,166.184 189.5,166.5C 189.5,161.833 189.5,157.167 189.5,152.5 Z"/></g>
<g><path style="opacity:1" fill="#fc9b00" d="M 278.5,159.5 C 278.666,168.839 278.5,178.173 278,187.5C 268.93,178.933 260.43,169.933 252.5,160.5C 260.984,159.507 269.651,159.174 278.5,159.5 Z"/></g>
<g><path style="opacity:1" fill="#ff9d00" d="M 60.5,159.5 C 83.1667,159.5 105.833,159.5 128.5,159.5C 128.5,163.833 128.5,168.167 128.5,172.5C 105.833,172.5 83.1667,172.5 60.5,172.5C 60.5,168.167 60.5,163.833 60.5,159.5 Z"/></g>
<g><path style="opacity:1" fill="#ff9d00" d="M 137.5,159.5 C 150.833,159.5 164.167,159.5 177.5,159.5C 177.5,163.833 177.5,168.167 177.5,172.5C 164.167,172.5 150.833,172.5 137.5,172.5C 137.5,168.167 137.5,163.833 137.5,159.5 Z"/></g>
<g><path style="opacity:1" fill="#fda500" d="M 60.5,172.5 C 83.1667,172.5 105.833,172.5 128.5,172.5C 128.5,175.833 128.5,179.167 128.5,182.5C 105.808,182.463 83.1414,183.129 60.5,184.5C 60.5,180.5 60.5,176.5 60.5,172.5 Z"/></g>
<g><path style="opacity:1" fill="#fda400" d="M 189.5,166.5 C 204.578,166.184 219.578,166.517 234.5,167.5C 235.329,172.453 235.663,177.453 235.5,182.5C 220.12,184.109 204.787,186.109 189.5,188.5C 189.5,181.167 189.5,173.833 189.5,166.5 Z"/></g>
<g><path style="opacity:1" fill="#fda300" d="M 288.5,166.5 C 304.075,165.874 319.408,166.54 334.5,168.5C 334.5,171.5 334.5,174.5 334.5,177.5C 319.204,180.049 303.871,182.383 288.5,184.5C 288.5,178.5 288.5,172.5 288.5,166.5 Z"/></g>
<g><path style="opacity:1" fill="#fba300" d="M 391.5,166.5 C 392.573,167.251 392.74,168.251 392,169.5C 383.631,177.702 375.464,186.035 367.5,194.5C 359.529,185.526 351.529,176.526 343.5,167.5C 359.325,166.504 375.325,166.17 391.5,166.5 Z"/></g>
<g><path style="opacity:1" fill="#f8a500" d="M 137.5,172.5 C 150.833,172.5 164.167,172.5 177.5,172.5C 177.5,176.167 177.5,179.833 177.5,183.5C 164.167,184.833 150.833,186.167 137.5,187.5C 137.5,182.5 137.5,177.5 137.5,172.5 Z"/></g>
<g><path style="opacity:1" fill="#f0f0f0" d="M 445.5,257.5 C 445.5,262.167 445.5,266.833 445.5,271.5C 399.167,271.5 352.833,271.5 306.5,271.5C 304.023,269.14 303.023,266.14 303.5,262.5C 303.005,259.052 304.005,256.219 306.5,254C 332.059,253.76 357.559,253.594 383,253.5C 390.5,253.667 398,253.833 405.5,254C 408.122,255.805 410.789,255.805 413.5,254C 421.255,253.697 428.922,253.53 436.5,253.5C 440.077,253.686 443.077,255.02 445.5,257.5 Z"/></g>
<g><path style="opacity:1" fill="#dddddd" d="M 313.5,258.5 C 314.496,258.414 315.329,258.748 316,259.5C 316.497,261.81 316.663,264.143 316.5,266.5C 318.484,266.617 320.15,265.95 321.5,264.5C 320.675,263.614 319.675,263.281 318.5,263.5C 318.281,262.325 318.614,261.325 319.5,260.5C 321.371,261.767 323.204,261.767 325,260.5C 324.695,262.443 324.695,264.443 325,266.5C 326.563,263.956 328.063,263.956 329.5,266.5C 330.346,257.624 332.013,257.624 334.5,266.5C 335.806,265.088 336.64,263.421 337,261.5C 337.909,266.73 339.075,266.73 340.5,261.5C 341.366,267.866 342.866,267.866 345,261.5C 346.876,268.026 348.209,267.693 349,260.5C 349.833,267.938 351.499,268.271 354,261.5C 354.923,262.759 355.757,264.092 356.5,265.5C 357.833,258.833 359.167,258.833 360.5,265.5C 362.409,266.348 364.409,266.682 366.5,266.5C 366.5,264.833 366.5,263.167 366.5,261.5C 365.5,261.5 364.5,261.5 363.5,261.5C 363.649,262.552 363.483,263.552 363,264.5C 361.77,263.725 361.437,262.725 362,261.5C 363.57,260.642 365.237,259.975 367,259.5C 368.597,260.885 370.43,261.551 372.5,261.5C 373.111,267.793 373.944,267.46 375,260.5C 376.775,257.956 378.608,257.956 380.5,260.5C 377.494,263.668 378.161,265.668 382.5,266.5C 386.353,265.496 386.353,264.662 382.5,264C 384.886,263.716 385.552,262.716 384.5,261C 385.563,259.812 386.897,259.312 388.5,259.5C 389.408,261.891 389.574,264.224 389,266.5C 390.402,264.027 391.902,264.027 393.5,266.5C 394.231,264.599 394.231,262.599 393.5,260.5C 395.5,261.167 397.5,261.833 399.5,262.5C 399.238,263.978 399.571,265.311 400.5,266.5C 401.167,264.833 401.833,263.167 402.5,261.5C 405.053,261.055 407.72,261.055 410.5,261.5C 410.953,266.346 412.953,267.346 416.5,264.5C 415.5,263.833 414.5,263.167 413.5,262.5C 415.108,261.682 416.775,261.015 418.5,260.5C 421.263,268.063 424.763,268.397 429,261.5C 429.49,262.793 429.657,264.127 429.5,265.5C 430.5,265.5 431.5,265.5 432.5,265.5C 432.557,260.318 433.224,260.318 434.5,265.5C 436.058,260.306 437.058,260.306 437.5,265.5C 438.5,265.5 439.5,265.5 440.5,265.5C 440.343,264.127 440.51,262.793 441,261.5C 441.896,264.025 441.396,266.192 439.5,268C 414.81,268.185 390.143,268.685 365.5,269.5C 348.338,268.826 331.171,268.16 314,267.5C 312.774,267.645 311.607,267.978 310.5,268.5C 309.501,265.479 310.501,263.146 313.5,261.5C 312.209,260.473 312.209,259.473 313.5,258.5 Z"/></g>
</svg>
