<?xml version="1.0" encoding="UTF-8"?>
<!DOCTYPE svg PUBLIC "-//W3C//DTD SVG 1.1//EN" "http://www.w3.org/Graphics/SVG/1.1/DTD/svg11.dtd">
<svg xmlns="http://www.w3.org/2000/svg" version="1.1" width="1999px" height="1000px" style="shape-rendering:geometricPrecision; text-rendering:geometricPrecision; image-rendering:optimizeQuality; fill-rule:evenodd; clip-rule:evenodd" xmlns:xlink="http://www.w3.org/1999/xlink">
<g><path style="opacity:1" fill="#111111" d="M -0.5,-0.5 C 665.833,-0.5 1332.17,-0.5 1998.5,-0.5C 1998.5,332.5 1998.5,665.5 1998.5,998.5C 1332.17,998.5 665.833,998.5 -0.5,998.5C -0.5,665.5 -0.5,332.5 -0.5,-0.5 Z"/></g>
<g><path style="opacity:1" fill="#fdfdfd" d="M 792.5,371.5 C 792.167,415.505 792.5,459.505 793.5,503.5C 794.107,503.376 794.44,503.043 794.5,502.5C 794.833,501.833 795.167,501.167 795.5,500.5C 812.933,482.504 830.266,464.337 847.5,446C 848.833,445.333 850.167,444.667 851.5,444C 865.833,443.333 880.167,443.333 894.5,444C 898.104,445.334 899.271,447.834 898,451.5C 897,453.167 896,454.833 895,456.5C 876.48,476.019 858.313,495.853 840.5,516C 862.369,550.232 883.869,584.732 905,619.5C 906.223,623.205 905.39,626.205 902.5,628.5C 888.846,629.666 875.179,629.833 861.5,629C 859.754,628.529 858.087,627.862 856.5,627C 840.278,600.713 823.944,574.546 807.5,548.5C 802.795,552.706 798.295,557.04 794,561.5C 793.667,583.167 793.333,604.833 793,626.5C 791.887,627.305 790.721,627.972 789.5,628.5C 775.451,628.799 761.451,628.465 747.5,627.5C 746.778,627.082 746.278,626.416 746,625.5C 745.333,540.833 745.333,456.167 746,371.5C 746.5,371 747,370.5 747.5,370C 761.833,369.333 776.167,369.333 790.5,370C 791.416,370.278 792.082,370.778 792.5,371.5 Z"/></g>
<g><path style="opacity:1" fill="#fcfcfc" d="M 987.5,380.5 C 985.62,380.229 984.287,380.896 983.5,382.5C 973.188,387.76 966.688,396.094 964,407.5C 960.068,425.029 964.568,439.863 977.5,452C 973.193,455.465 969.859,459.631 967.5,464.5C 963.101,472.55 962.435,480.883 965.5,489.5C 966.517,494.533 968.85,498.866 972.5,502.5C 965.426,507.073 959.926,513.073 956,520.5C 955.023,525.793 954.523,531.126 954.5,536.5C 950.818,536.665 947.152,536.499 943.5,536C 942.667,535.167 941.833,534.333 941,533.5C 940.333,479.833 940.333,426.167 941,372.5C 941.374,371.584 941.874,370.75 942.5,370C 957.5,369.333 972.5,369.333 987.5,370C 989.028,371.648 989.695,373.648 989.5,376C 989.431,377.986 988.765,379.486 987.5,380.5 Z"/></g>
<g><path style="opacity:1" fill="#aaaaaa" d="M 792.5,371.5 C 793.338,371.842 793.672,372.508 793.5,373.5C 793.168,416.67 793.501,459.67 794.5,502.5C 794.44,503.043 794.107,503.376 793.5,503.5C 792.5,459.505 792.167,415.505 792.5,371.5 Z"/></g>
<g><path style="opacity:1" fill="#2c2c2c" d="M 793.5,373.5 C 794.167,415.833 794.833,458.167 795.5,500.5C 795.167,501.167 794.833,501.833 794.5,502.5C 793.501,459.67 793.168,416.67 793.5,373.5 Z"/></g>
<g><path style="opacity:1" fill="#fbfbfb" d="M 482.5,425.5 C 476.464,425.64 470.464,425.307 464.5,424.5C 453.29,418.063 449.123,408.397 452,395.5C 459.813,378.379 472.647,373.212 490.5,380C 502.404,387.098 505.904,397.264 501,410.5C 497.008,418.339 490.841,423.339 482.5,425.5 Z"/></g>
<g><path style="opacity:1" fill="#7a7a7a" d="M 987.5,380.5 C 986.486,381.674 985.153,382.34 983.5,382.5C 984.287,380.896 985.62,380.229 987.5,380.5 Z"/></g>
<g><path style="opacity:1" fill="#6a4c8b" d="M 1231.5,393.5 C 1219.17,392.224 1206.84,392.224 1194.5,393.5C 1200.42,391.955 1206.59,391.289 1213,391.5C 1219.41,391.289 1225.58,391.955 1231.5,393.5 Z"/></g>
<g><path style="opacity:1" fill="#ba82f9" d="M 1231.5,393.5 C 1273.75,399.74 1293.42,424.074 1290.5,466.5C 1289.13,469.619 1288.13,472.952 1287.5,476.5C 1280.94,490.066 1270.94,500.4 1257.5,507.5C 1276.45,514.119 1288.45,527.119 1293.5,546.5C 1294.33,554.805 1294.67,563.138 1294.5,571.5C 1287.7,601.798 1269.04,620.298 1238.5,627C 1234.85,627.719 1231.19,628.219 1227.5,628.5C 1212.7,629.076 1198.04,628.076 1183.5,625.5C 1163.34,619.504 1148.51,607.171 1139,588.5C 1137.11,583.993 1135.94,579.327 1135.5,574.5C 1135.5,570.833 1135.5,567.167 1135.5,563.5C 1150.74,562.875 1165.74,563.541 1180.5,565.5C 1181.65,575.619 1186.65,582.953 1195.5,587.5C 1195.97,588.906 1196.97,589.573 1198.5,589.5C 1198.83,589.5 1199.17,589.5 1199.5,589.5C 1200.84,590.793 1202.51,591.626 1204.5,592C 1210.02,592.817 1215.35,592.651 1220.5,591.5C 1221.17,591.5 1221.83,591.5 1222.5,591.5C 1227.08,591.53 1231.08,590.196 1234.5,587.5C 1239.59,583.742 1243.59,579.075 1246.5,573.5C 1247.12,573.389 1247.62,573.056 1248,572.5C 1250.1,564.292 1249.93,556.292 1247.5,548.5C 1243.32,535.694 1234.32,528.527 1220.5,527C 1209.17,526.5 1197.84,526.333 1186.5,526.5C 1186.5,514.5 1186.5,502.5 1186.5,490.5C 1199.94,491.077 1213.28,490.244 1226.5,488C 1233.59,485.739 1238.59,481.239 1241.5,474.5C 1243.98,472.497 1244.98,469.831 1244.5,466.5C 1244.5,461.5 1244.5,456.5 1244.5,451.5C 1244.59,448.848 1243.92,446.515 1242.5,444.5C 1241.47,441.628 1239.81,439.128 1237.5,437C 1226.87,430.106 1215.2,427.773 1202.5,430C 1192.37,433.956 1186.04,441.122 1183.5,451.5C 1182.6,452.209 1182.26,453.209 1182.5,454.5C 1167.5,454.5 1152.5,454.5 1137.5,454.5C 1137.5,453.167 1137.5,451.833 1137.5,450.5C 1139.57,429.608 1149.57,413.774 1167.5,403C 1171.62,400.603 1175.96,398.769 1180.5,397.5C 1185.16,396.943 1189.5,395.61 1193.5,393.5C 1193.83,393.5 1194.17,393.5 1194.5,393.5C 1206.84,392.224 1219.17,392.224 1231.5,393.5 Z"/></g>
<g><path style="opacity:1" fill="#ba82f9" d="M 1533.5,427.5 C 1533.43,429.027 1534.09,430.027 1535.5,430.5C 1540.86,442.622 1544.36,455.288 1546,468.5C 1546.67,495.833 1546.67,523.167 1546,550.5C 1544.23,570.155 1537.89,588.155 1527,604.5C 1514.41,618.878 1498.58,627.045 1479.5,629C 1471.5,629.667 1463.5,629.667 1455.5,629C 1453.62,628.802 1451.95,628.302 1450.5,627.5C 1445.37,625.457 1440.03,623.79 1434.5,622.5C 1423.71,617.545 1414.88,610.211 1408,600.5C 1397.49,582.283 1391.82,562.616 1391,541.5C 1390.33,520.167 1390.33,498.833 1391,477.5C 1391.98,461.566 1395.48,446.232 1401.5,431.5C 1402.91,431.027 1403.57,430.027 1403.5,428.5C 1413.53,409.456 1429.2,397.623 1450.5,393C 1470.75,389.322 1490.09,391.989 1508.5,401C 1519.45,407.452 1527.79,416.285 1533.5,427.5 Z"/></g>
<g><path style="opacity:1" fill="#865fb1" d="M 1193.5,393.5 C 1189.5,395.61 1185.16,396.943 1180.5,397.5C 1184.5,395.39 1188.84,394.057 1193.5,393.5 Z"/></g>
<g><path style="opacity:1" fill="#fbfbfb" d="M 987.5,397.5 C 1001.64,395.655 1010.47,401.655 1014,415.5C 1015.34,425.146 1012.84,433.646 1006.5,441C 991.624,449.487 981.124,445.654 975,429.5C 971.818,415.866 975.985,405.199 987.5,397.5 Z"/></g>
<g><path style="opacity:1" fill="#bababa" d="M 464.5,424.5 C 470.464,425.307 476.464,425.64 482.5,425.5C 480.19,426.164 477.69,426.497 475,426.5C 471.195,426.696 467.695,426.03 464.5,424.5 Z"/></g>
<g><path style="opacity:1" fill="#5c4378" d="M 1533.5,427.5 C 1534.91,427.973 1535.57,428.973 1535.5,430.5C 1534.09,430.027 1533.43,429.027 1533.5,427.5 Z"/></g>
<g><path style="opacity:1" fill="#5e447b" d="M 1403.5,428.5 C 1403.57,430.027 1402.91,431.027 1401.5,431.5C 1401.43,429.973 1402.09,428.973 1403.5,428.5 Z"/></g>
<g><path style="opacity:1" fill="#594173" d="M 1474.5,429.5 C 1467.6,429.066 1460.93,430.066 1454.5,432.5C 1456.67,430.489 1459.33,429.322 1462.5,429C 1466.69,428.188 1470.69,428.355 1474.5,429.5 Z"/></g>
<g><path style="opacity:1" fill="#121112" d="M 1474.5,429.5 C 1483.76,431.414 1490.43,436.747 1494.5,445.5C 1494.99,447.819 1495.99,449.819 1497.5,451.5C 1497.79,454.939 1498.45,458.272 1499.5,461.5C 1500.45,491.149 1500.78,520.815 1500.5,550.5C 1499.64,562.237 1496.14,573.237 1490,583.5C 1488.19,585.3 1486.35,586.967 1484.5,588.5C 1481.6,589.129 1478.94,590.129 1476.5,591.5C 1475.83,591.5 1475.17,591.5 1474.5,591.5C 1468.8,591.625 1463.13,591.292 1457.5,590.5C 1452.28,588.124 1448.12,584.457 1445,579.5C 1442.3,573.57 1440.14,567.57 1438.5,561.5C 1438.56,556.269 1437.89,551.269 1436.5,546.5C 1436.06,518.467 1436.56,490.467 1438,462.5C 1439.27,454.345 1441.94,446.679 1446,439.5C 1448.44,436.553 1451.27,434.22 1454.5,432.5C 1460.93,430.066 1467.6,429.066 1474.5,429.5 Z"/></g>
<g><path style="opacity:1" fill="#fbfbfb" d="M 596.5,445.5 C 596.17,451.868 596.504,458.202 597.5,464.5C 598.107,464.376 598.44,464.043 598.5,463.5C 604.651,454.533 612.984,448.366 623.5,445C 641.704,439.655 659.371,440.989 676.5,449C 689.535,458.554 697.368,471.388 700,487.5C 701.115,512.144 701.615,536.811 701.5,561.5C 701.333,582.833 701.167,604.167 701,625.5C 700.626,626.416 700.126,627.25 699.5,628C 685.26,629.632 670.927,629.965 656.5,629C 655.333,628.5 654.5,627.667 654,626.5C 653.667,583.5 653.333,540.5 653,497.5C 648.428,487.209 640.428,482.875 629,484.5C 616.913,484.046 606.579,488.046 598,496.5C 597.667,539.833 597.333,583.167 597,626.5C 595.745,627.211 594.579,628.044 593.5,629C 579.833,629.667 566.167,629.667 552.5,629C 551.584,628.626 550.75,628.126 550,627.5C 549.333,566.833 549.333,506.167 550,445.5C 550.5,445 551,444.5 551.5,444C 565.833,443.333 580.167,443.333 594.5,444C 595.044,444.717 595.711,445.217 596.5,445.5 Z"/></g>
<g><path style="opacity:1" fill="#fbfbfb" d="M 456.5,443.5 C 470.504,443.333 484.504,443.5 498.5,444C 499.416,444.374 500.25,444.874 501,445.5C 501.667,505.833 501.667,566.167 501,626.5C 500.075,627.047 499.242,627.713 498.5,628.5C 484.846,629.666 471.179,629.833 457.5,629C 455.667,628.5 454.5,627.333 454,625.5C 453.333,565.833 453.333,506.167 454,446.5C 454.698,445.309 455.531,444.309 456.5,443.5 Z"/></g>
<g><path style="opacity:1" fill="#6e4f90" d="M 1494.5,445.5 C 1496.54,446.911 1497.54,448.911 1497.5,451.5C 1495.99,449.819 1494.99,447.819 1494.5,445.5 Z"/></g>
<g><path style="opacity:1" fill="#8d8d8d" d="M 596.5,445.5 C 597.167,451.5 597.833,457.5 598.5,463.5C 598.44,464.043 598.107,464.376 597.5,464.5C 596.504,458.202 596.17,451.868 596.5,445.5 Z"/></g>
<g><path style="opacity:1" fill="#4a375f" d="M 1242.5,444.5 C 1243.92,446.515 1244.59,448.848 1244.5,451.5C 1243.08,449.485 1242.41,447.152 1242.5,444.5 Z"/></g>
<g><path style="opacity:1" fill="#6f4f92" d="M 1137.5,450.5 C 1137.5,451.833 1137.5,453.167 1137.5,454.5C 1152.5,454.5 1167.5,454.5 1182.5,454.5C 1182.26,453.209 1182.6,452.209 1183.5,451.5C 1183.5,452.833 1183.5,454.167 1183.5,455.5C 1167.83,455.5 1152.17,455.5 1136.5,455.5C 1136.22,453.585 1136.55,451.919 1137.5,450.5 Z"/></g>
<g><path style="opacity:1" fill="#fafafa" d="M 1004.5,471.5 C 1005.16,475.466 1005.5,479.466 1005.5,483.5C 1003.43,491.903 998.095,496.903 989.5,498.5C 980.269,496.426 975.602,490.592 975.5,481C 977.33,465.778 985.33,460.445 999.5,465C 1001.83,466.805 1003.49,468.972 1004.5,471.5 Z"/></g>
<g><path style="opacity:1" fill="#553e6e" d="M 1290.5,466.5 C 1290.68,470.286 1289.68,473.619 1287.5,476.5C 1288.13,472.952 1289.13,469.619 1290.5,466.5 Z"/></g>
<g><path style="opacity:1" fill="#745398" d="M 1244.5,466.5 C 1244.98,469.831 1243.98,472.497 1241.5,474.5C 1242.13,471.603 1243.13,468.936 1244.5,466.5 Z"/></g>
<g><path style="opacity:1" fill="#646464" d="M 1004.5,471.5 C 1005.93,473.679 1006.59,476.179 1006.5,479C 1006.49,480.707 1006.16,482.207 1005.5,483.5C 1005.5,479.466 1005.16,475.466 1004.5,471.5 Z"/></g>
<g><path style="opacity:1" fill="#8961b6" d="M 1499.5,461.5 C 1500.3,462.952 1500.8,464.618 1501,466.5C 1501.83,494.67 1501.66,522.67 1500.5,550.5C 1500.78,520.815 1500.45,491.149 1499.5,461.5 Z"/></g>
<g><path style="opacity:1" fill="#4f4f4f" d="M 967.5,464.5 C 965.717,472.688 965.05,481.021 965.5,489.5C 962.435,480.883 963.101,472.55 967.5,464.5 Z"/></g>
<g><path style="opacity:1" fill="#9a9a9a" d="M 979.5,515.5 C 977.194,515.993 974.861,516.326 972.5,516.5C 974.713,514.688 977.047,514.355 979.5,515.5 Z"/></g>
<g><path style="opacity:1" fill="#f3f3f3" d="M 979.5,515.5 C 984.38,516.392 986.713,519.392 986.5,524.5C 985.4,535.549 979.4,540.049 968.5,538C 964.204,533.485 963.37,528.319 966,522.5C 967.406,519.591 969.572,517.591 972.5,516.5C 974.861,516.326 977.194,515.993 979.5,515.5 Z"/></g>
<g><path style="opacity:1" fill="#8a61b6" d="M 1436.5,546.5 C 1437.89,551.269 1438.56,556.269 1438.5,561.5C 1436.97,556.75 1436.3,551.75 1436.5,546.5 Z"/></g>
<g><path style="opacity:1" fill="#7c58a4" d="M 1247.5,548.5 C 1249.93,556.292 1250.1,564.292 1248,572.5C 1247.62,573.056 1247.12,573.389 1246.5,573.5C 1248.66,565.243 1248.99,556.91 1247.5,548.5 Z"/></g>
<g><path style="opacity:1" fill="#362a44" d="M 1293.5,546.5 C 1295.04,551.065 1295.71,555.898 1295.5,561C 1295.5,564.683 1295.17,568.183 1294.5,571.5C 1294.67,563.138 1294.33,554.805 1293.5,546.5 Z"/></g>
<g><path style="opacity:1" fill="#9a6ccc" d="M 1180.5,565.5 C 1165.74,563.541 1150.74,562.875 1135.5,563.5C 1135.5,567.167 1135.5,570.833 1135.5,574.5C 1134.52,570.702 1134.18,566.702 1134.5,562.5C 1149.83,562.5 1165.17,562.5 1180.5,562.5C 1180.5,563.5 1180.5,564.5 1180.5,565.5 Z"/></g>
<g><path style="opacity:1" fill="#fbfbfb" d="M 972.5,628.5 C 966.464,628.64 960.464,628.307 954.5,627.5C 942.583,620.938 938.083,610.938 941,597.5C 947.543,582.309 959.043,576.143 975.5,579C 992.853,585.365 998.019,597.199 991,614.5C 986.656,621.689 980.49,626.356 972.5,628.5 Z"/></g>
<g><path style="opacity:1" fill="#b981f7" d="M 1374.5,597.5 C 1374.59,602.537 1374.25,607.537 1373.5,612.5C 1366.12,626.139 1354.79,630.972 1339.5,627C 1330.87,624.205 1325.54,618.372 1323.5,609.5C 1323.18,603.346 1323.84,597.346 1325.5,591.5C 1329.17,585.486 1334.5,581.653 1341.5,580C 1354.91,577.131 1365.41,581.298 1373,592.5C 1373.2,594.382 1373.7,596.048 1374.5,597.5 Z"/></g>
<g><path style="opacity:1" fill="#5f447b" d="M 1195.5,587.5 C 1197.03,587.427 1198.03,588.094 1198.5,589.5C 1196.97,589.573 1195.97,588.906 1195.5,587.5 Z"/></g>
<g><path style="opacity:1" fill="#6c4e8e" d="M 1234.5,587.5 C 1231.08,590.196 1227.08,591.53 1222.5,591.5C 1226.34,589.997 1230.34,588.664 1234.5,587.5 Z"/></g>
<g><path style="opacity:1" fill="#76549b" d="M 1484.5,588.5 C 1482.38,590.655 1479.72,591.655 1476.5,591.5C 1478.94,590.129 1481.6,589.129 1484.5,588.5 Z"/></g>
<g><path style="opacity:1" fill="#5d4379" d="M 1199.5,589.5 C 1206.35,591.225 1213.35,591.891 1220.5,591.5C 1215.35,592.651 1210.02,592.817 1204.5,592C 1202.51,591.626 1200.84,590.793 1199.5,589.5 Z"/></g>
<g><path style="opacity:1" fill="#60457d" d="M 1457.5,590.5 C 1463.13,591.292 1468.8,591.625 1474.5,591.5C 1472.36,592.163 1470.03,592.497 1467.5,592.5C 1463.86,592.685 1460.53,592.019 1457.5,590.5 Z"/></g>
<g><path style="opacity:1" fill="#6d4e8f" d="M 1325.5,591.5 C 1323.84,597.346 1323.18,603.346 1323.5,609.5C 1322.35,605.019 1322.18,600.352 1323,595.5C 1323.61,593.934 1324.44,592.6 1325.5,591.5 Z"/></g>
<g><path style="opacity:1" fill="#3a2c4a" d="M 1374.5,597.5 C 1375.16,599.304 1375.5,601.304 1375.5,603.5C 1375.66,606.814 1374.99,609.814 1373.5,612.5C 1374.25,607.537 1374.59,602.537 1374.5,597.5 Z"/></g>
<g><path style="opacity:1" fill="#8961b5" d="M 1434.5,622.5 C 1440.03,623.79 1445.37,625.457 1450.5,627.5C 1444.71,627.013 1439.38,625.346 1434.5,622.5 Z"/></g>
<g><path style="opacity:1" fill="#735298" d="M 1183.5,625.5 C 1198.04,628.076 1212.7,629.076 1227.5,628.5C 1218.01,629.658 1208.34,629.825 1198.5,629C 1193.2,628.59 1188.2,627.423 1183.5,625.5 Z"/></g>
<g><path style="opacity:1" fill="#9c9c9c" d="M 747.5,627.5 C 761.451,628.465 775.451,628.799 789.5,628.5C 776.006,629.661 762.34,629.827 748.5,629C 747.944,628.617 747.611,628.117 747.5,627.5 Z"/></g>
<g><path style="opacity:1" fill="#a5a5a5" d="M 954.5,627.5 C 960.464,628.307 966.464,628.64 972.5,628.5C 970.19,629.164 967.69,629.497 965,629.5C 961.195,629.696 957.695,629.03 954.5,627.5 Z"/></g>
</svg>
